<svg>
	<line x1="1441.250000" y1="1033.750000" x2="1441.250000" y2="1061.000000" style="stroke:black" />
	<line x1="1441.250000" y1="1061.000000" x2="1373.750000" y2="1061.000000" style="stroke:black" />
	<line x1="1373.750000" y1="1061.000000" x2="1306.250000" y2="1061.000000" style="stroke:black" />
	<line x1="1306.250000" y1="1061.000000" x2="1306.250000" y2="1033.750000" style="stroke:black" />
	<line x1="1306.250000" y1="1033.750000" x2="1306.250000" y2="990.000000" style="stroke:black" />
	<line x1="1306.250000" y1="990.000000" x2="1306.250000" y2="946.250000" style="stroke:black" />
	<line x1="1306.250000" y1="946.250000" x2="1306.250000" y2="898.750000" style="stroke:black" />
	<line x1="1306.250000" y1="898.750000" x2="1306.250000" y2="851.250000" style="stroke:black" />
	<line x1="1306.250000" y1="851.250000" x2="1306.250000" y2="803.750000" style="stroke:black" />
	<line x1="1306.250000" y1="803.750000" x2="1306.250000" y2="756.250000" style="stroke:black" />
	<line x1="1306.250000" y1="756.250000" x2="1306.250000" y2="708.750000" style="stroke:black" />
	<line x1="1306.250000" y1="708.750000" x2="1306.250000" y2="661.250000" style="stroke:black" />
	<line x1="1306.250000" y1="661.250000" x2="1306.250000" y2="613.750000" style="stroke:black" />
	<line x1="1306.250000" y1="613.750000" x2="1306.250000" y2="566.250000" style="stroke:black" />
	<line x1="1306.250000" y1="566.250000" x2="1306.250000" y2="518.750000" style="stroke:black" />
	<line x1="1306.250000" y1="518.750000" x2="1306.250000" y2="471.250000" style="stroke:black" />
	<line x1="1306.250000" y1="471.250000" x2="1306.250000" y2="423.750000" style="stroke:black" />
	<line x1="1306.250000" y1="423.750000" x2="1306.250000" y2="376.250000" style="stroke:black" />
	<line x1="1306.250000" y1="376.250000" x2="1306.250000" y2="328.750000" style="stroke:black" />
	<line x1="1306.250000" y1="328.750000" x2="1306.250000" y2="281.250000" style="stroke:black" />
	<line x1="1306.250000" y1="281.250000" x2="1306.250000" y2="233.750000" style="stroke:black" />
	<line x1="1306.250000" y1="233.750000" x2="1306.250000" y2="186.250000" style="stroke:black" />
	<line x1="1306.250000" y1="186.250000" x2="1238.750000" y2="186.250000" style="stroke:black" />
	<line x1="1238.750000" y1="186.250000" x2="1171.250000" y2="186.250000" style="stroke:black" />
	<line x1="1171.250000" y1="186.250000" x2="1103.750000" y2="186.250000" style="stroke:black" />
	<line x1="1103.750000" y1="186.250000" x2="1036.250000" y2="186.250000" style="stroke:black" />
	<line x1="1036.250000" y1="186.250000" x2="968.750000" y2="186.250000" style="stroke:black" />
	<line x1="968.750000" y1="186.250000" x2="901.250000" y2="186.250000" style="stroke:black" />
	<line x1="901.250000" y1="186.250000" x2="833.750000" y2="186.250000" style="stroke:black" />
	<line x1="833.750000" y1="186.250000" x2="766.250000" y2="186.250000" style="stroke:black" />
	<line x1="766.250000" y1="186.250000" x2="698.750000" y2="186.250000" style="stroke:black" />
	<line x1="698.750000" y1="186.250000" x2="631.250000" y2="186.250000" style="stroke:black" />
	<line x1="631.250000" y1="186.250000" x2="563.750000" y2="186.250000" style="stroke:black" />
	<line x1="563.750000" y1="186.250000" x2="496.250000" y2="186.250000" style="stroke:black" />
	<line x1="496.250000" y1="186.250000" x2="428.750000" y2="186.250000" style="stroke:black" />
	<line x1="428.750000" y1="186.250000" x2="361.250000" y2="186.250000" style="stroke:black" />
	<line x1="361.250000" y1="186.250000" x2="293.750000" y2="186.250000" style="stroke:black" />
	<line x1="293.750000" y1="186.250000" x2="226.250000" y2="186.250000" style="stroke:black" />
</svg>